<svg xmlns="http://www.w3.org/2000/svg" width="128" height="128" viewBox="0 0 128 128">
  <defs>
    <linearGradient id="gradient" x1="10%" y1="10%" x2="90%" y2="90%">
      <stop offset="0%" stop-color="#FF375F" />
      <stop offset="100%" stop-color="#FF7854" />
    </linearGradient>
    <filter id="shadow" x="-20%" y="-20%" width="140%" height="140%">
      <feDropShadow dx="0" dy="2" stdDeviation="3" flood-opacity="0.3" />
    </filter>
  </defs>
  <circle cx="64" cy="64" r="60" fill="white" stroke="#eee" stroke-width="1" filter="url(#shadow)" />

  <!-- Tinder flame logo -->
  <path d="M69,30c-2-3-3-6-3-9c-6,4-10,11-10,18c0,0-6-3-10-12c-1,9,3,17,8,22c-7-1-13-7-16-12
         c2,10,9,17,19,19c-7,2-14,1-19,0c6,7,16,10,26,7c8-2,16-9,16-19C80,36,75,31,69,30z"
        fill="url(#gradient)" />

  <!-- Magnifying glass representing deblur -->
  <circle cx="86" cy="45" r="10" fill="none" stroke="#333" stroke-width="3" />
  <line x1="93" y1="52" x2="103" y2="62" stroke="#333" stroke-width="3" stroke-linecap="round" />

  <!-- Blur effect being cleared -->
  <g opacity="0.9">
    <rect x="32" y="75" width="64" height="4" rx="2" fill="#ccc" />
    <rect x="38" y="83" width="52" height="4" rx="2" fill="#ddd" />
    <rect x="44" y="91" width="40" height="4" rx="2" fill="#eee" />
  </g>

  <!-- Cancel slash over blur -->
  <line x1="32" y1="95" x2="96" y2="75" stroke="#FF375F" stroke-width="3" stroke-linecap="round" />
</svg>
